<svg width="432" height="140" viewBox="0 0 432 140" fill="none" xmlns="http://www.w3.org/2000/svg">
<path d="M317.894 69.4937C355.794 69.4937 393.594 69.4937 431.494 69.4937V101.894H426.494C413.594 101.894 403.094 91.3937 403.094 78.5937V74.4937H397.994V139.394H351.394V74.4937H346.294V78.5937C346.294 91.3937 335.794 101.894 322.894 101.894H317.894V69.4937Z" fill="#D6D6D6"/>
<path d="M217.285 139.394V69.4937H263.885V134.394H268.985V130.294C268.985 117.494 279.485 106.994 292.285 106.994H315.685V139.494C282.885 139.494 250.085 139.394 217.285 139.394Z" fill="#D6D6D6"/>
<path d="M131.875 69.4937C149.075 69.4937 166.375 69.4937 183.575 69.4937C196.475 69.4937 206.975 79.9937 206.975 92.7937V139.394H160.275V106.994H155.175V139.394H108.575V92.7937C108.575 79.9937 118.975 69.4937 131.875 69.4937ZM155.175 101.894H160.275V74.4937H155.175V101.894Z" fill="#D6D6D6"/>
<path d="M51.7 106.994H98.4V139.394H75C62.2 139.394 51.7 128.994 51.7 116.094V106.994ZM0 139.394V69.4937H46.6V101.894H51.7V69.4937H98.4V101.894H51.7V106.994H46.6V139.394H0Z" fill="#D6D6D6"/>
<path d="M364.923 47.2938V0C381.838 0 398.753 0 415.668 0C424.396 0 431.5 7.10421 431.5 15.7646V47.2938H399.903V3.38296H396.453V47.2938H364.923Z" fill="#979797"/>
<path d="M307.651 0C319.289 0 330.994 0 342.631 0C351.359 0 358.464 7.10421 358.464 15.7646V31.5292C358.464 40.1895 351.359 47.2938 342.631 47.2938C330.994 47.2938 319.289 47.2938 307.651 47.2938C298.923 47.2938 291.887 40.1895 291.887 31.5292V15.7646C291.887 7.10421 298.923 0 307.651 0ZM323.416 43.9108H326.867V3.38296H323.416V43.9108Z" fill="#979797"/>
<path d="M235.44 0C252.354 0 269.269 0 286.252 0V21.9216H270.419C261.759 21.9216 254.655 14.8174 254.655 6.15698V3.38296H251.204C251.204 10.2165 251.678 14.885 256.955 20.0271C257.699 20.7037 258.444 21.3803 259.256 21.9216H219.675V15.7646C219.675 7.10421 226.779 0 235.44 0ZM251.204 43.9108H254.655C254.655 37.0772 254.249 32.4087 248.904 27.2666C248.227 26.5901 247.415 25.9135 246.603 25.3722H286.252V31.5292C286.252 40.2572 279.147 47.2938 270.419 47.2938C253.505 47.2938 236.59 47.2938 219.675 47.2938V25.3722H235.44C244.1 25.3722 251.204 32.4764 251.204 41.1368V43.9108Z" fill="#979797"/>
<path d="M147.013 0C163.928 0 180.843 0 197.758 0C206.486 0 213.59 7.03655 213.59 15.7646V21.9216H185.444V25.3722H213.59V47.2938H197.758C189.097 47.2938 181.993 40.2572 181.993 31.5292C181.993 22.1922 181.993 12.7876 181.993 3.38296H178.542V47.2938H147.013V0Z" fill="#979797"/>
<path d="M89.2255 0C100.863 0 112.568 0 124.205 0C132.933 0 140.038 7.10421 140.038 15.7646V47.2938H108.441V25.3722H104.99V47.2938H73.4609V15.7646C73.4609 7.10421 80.4975 0 89.2255 0ZM104.99 21.9216H108.441V3.38296H104.99V21.9216Z" fill="#979797"/>
<path d="M34.9798 25.3722H66.5766V47.2938H50.7444C42.084 47.2938 34.9798 40.2572 34.9798 31.5292V25.3722ZM0 47.2938V0H31.5292V21.9216H34.9798V0H66.5766V21.9216H34.9798V25.3722H31.5292V47.2938H0Z" fill="#979797"/>
</svg>
