<svg width="1092" height="262" viewBox="0 0 1092 262" fill="none" xmlns="http://www.w3.org/2000/svg">
<path d="M1007.24 261.462H889.324V84.3423H1007.24V261.462ZM804.56 166.576V84.3423H876.42V107.621C876.42 140.008 849.852 166.576 817.211 166.576H804.56ZM1020.14 84.3423H1092V166.576H1079.35C1046.71 166.576 1020.14 140.008 1020.14 107.621V84.3423Z" fill="#D6D6D6"/>
<path d="M667.903 261.462H549.992V84.3423H667.903V261.462ZM739.763 179.481H798.972V261.715H680.808V238.436C680.808 206.049 707.376 179.481 739.763 179.481Z" fill="#D6D6D6"/>
<path d="M274.925 143.551C274.925 111.163 301.24 84.3423 333.881 84.3423H392.836V261.462H274.925V143.551ZM464.696 84.3423C497.337 84.3423 523.905 111.163 523.905 143.551V261.462H405.741V84.3423H464.696Z" fill="#D6D6D6"/>
<path d="M249.18 166.576H131.015V84.3423H249.18V166.576ZM131.015 179.481H249.18V261.462H189.971C157.583 261.462 131.015 235.147 131.015 202.506V179.481ZM118.111 261.462H0.199951V84.3423H118.111V261.462Z" fill="#D6D6D6"/>
<path d="M343.765 44.3433V0.0634766C359.602 0.0634766 375.439 0.0634766 391.276 0.0634766C399.447 0.0634766 406.099 6.71495 406.099 14.8234V44.3433H376.516V3.23084H373.285V44.3433H343.765Z" fill="#979797"/>
<path d="M290.143 0.0634766C301.039 0.0634766 311.998 0.0634766 322.894 0.0634766C331.065 0.0634766 337.717 6.71495 337.717 14.8234V29.5833C337.717 37.6918 331.065 44.3433 322.894 44.3433C311.998 44.3433 301.039 44.3433 290.143 44.3433C281.971 44.3433 275.383 37.6918 275.383 29.5833V14.8234C275.383 6.71495 281.971 0.0634766 290.143 0.0634766ZM304.903 41.1759H308.134V3.23084H304.903V41.1759Z" fill="#979797"/>
<path d="M222.533 0.0634766C238.37 0.0634766 254.207 0.0634766 270.107 0.0634766V20.588H255.284C247.175 20.588 240.524 13.9365 240.524 5.82809V3.23084H237.293C237.293 9.62893 237.736 13.9999 242.678 18.8143C243.374 19.4478 244.071 20.0812 244.831 20.588H207.773V14.8234C207.773 6.71495 214.425 0.0634766 222.533 0.0634766ZM237.293 41.1759H240.524C240.524 34.7778 240.144 30.4069 235.139 25.5925C234.506 24.959 233.746 24.3255 232.985 23.8187H270.107V29.5833C270.107 37.7552 263.456 44.3433 255.284 44.3433C239.447 44.3433 223.61 44.3433 207.773 44.3433V23.8187H222.533C230.642 23.8187 237.293 30.4702 237.293 38.5787V41.1759Z" fill="#979797"/>
<path d="M139.742 0.0634766C155.579 0.0634766 171.416 0.0634766 187.253 0.0634766C195.425 0.0634766 202.076 6.6516 202.076 14.8234V20.588H175.723V23.8187H202.076V44.3433H187.253C179.144 44.3433 172.493 37.7552 172.493 29.5833C172.493 20.8414 172.493 12.0361 172.493 3.23084H169.262V44.3433H139.742V0.0634766Z" fill="#979797"/>
<path d="M85.6368 0.0634766C96.5325 0.0634766 107.492 0.0634766 118.387 0.0634766C126.559 0.0634766 133.211 6.71495 133.211 14.8234V44.3433H103.627V23.8187H100.397V44.3433H70.8768V14.8234C70.8768 6.71495 77.465 0.0634766 85.6368 0.0634766ZM100.397 20.588H103.627V3.23084H100.397V20.588Z" fill="#979797"/>
<path d="M64.4315 20.5879H34.8482V0H64.4315V20.5879ZM34.8482 23.8186H64.4315V44.3432H49.6082C41.4997 44.3432 34.8482 37.755 34.8482 29.5832V23.8186ZM31.6175 44.3432H2.09766V0H31.6175V44.3432Z" fill="#979797"/>
</svg>
