<svg width="572" height="36" viewBox="0 0 572 36" fill="none" xmlns="http://www.w3.org/2000/svg">
<path d="M554.925 35.9492H531.259V0.399902H554.925V35.9492ZM514.246 16.9049V0.399902H528.669V5.0721C528.669 11.5725 523.337 16.9049 516.785 16.9049H514.246ZM557.515 0.399902H571.938V16.9049H569.398C562.847 16.9049 557.515 11.5725 557.515 5.0721V0.399902Z" fill="#979797"/>
<path d="M486.819 35.9492H463.153V0.399902H486.819V35.9492ZM501.241 19.495H513.125V36H489.409V31.3278C489.409 24.8274 494.741 19.495 501.241 19.495Z" fill="#979797"/>
<path d="M407.945 12.2835C407.945 5.78308 413.226 0.399902 419.778 0.399902H431.611V35.9492H407.945V12.2835ZM446.033 0.399902C452.585 0.399902 457.917 5.78308 457.917 12.2835V35.9492H434.201V0.399902H446.033Z" fill="#979797"/>
<path d="M402.777 16.9049H379.061V0.399902H402.777V16.9049ZM379.061 19.495H402.777V35.9492H390.894C384.393 35.9492 379.061 30.6676 379.061 24.1164V19.495ZM376.471 35.9492H352.805V0.399902H376.471V35.9492Z" fill="#979797"/>
<path d="M285.833 0.399902C292.333 0.399902 297.666 5.78308 297.666 12.2835V35.9492H274V0.399902H285.833ZM300.256 0.399902H323.972V24.1164C323.972 30.6168 318.64 35.9492 312.089 35.9492H300.256V0.399902Z" fill="#979797"/>
<path d="M219.178 12.2835C219.178 5.78308 224.46 0.399902 231.011 0.399902H242.844V35.9492H231.011C224.46 35.9492 219.178 30.6168 219.178 24.1164V12.2835ZM257.267 0.399902C263.818 0.399902 269.15 5.78308 269.15 12.2835V24.1164C269.15 30.6168 263.818 35.9492 257.267 35.9492H245.434V0.399902H257.267Z" fill="#979797"/>
<path d="M192.959 15.483C193.518 15.9908 194.077 16.4987 194.686 16.9049H164.977V12.2835C164.977 5.78308 170.309 0.450686 176.81 0.450686H188.643V2.68522C188.643 7.96683 188.897 11.5218 192.959 15.483ZM176.81 19.495C183.31 19.495 188.643 24.8274 188.643 31.3278V35.9492H164.977V19.495H176.81ZM186.916 20.9169C186.408 20.4091 185.799 19.9012 185.189 19.495H214.949V24.1164C214.949 30.6676 209.617 35.9492 203.066 35.9492H191.233V33.7147C191.233 28.4331 190.979 24.8781 186.916 20.9169ZM191.233 0.399902H214.949V16.9049H203.066C196.565 16.9049 191.233 11.5725 191.233 5.0721V0.399902Z" fill="#979797"/>
<path d="M134.004 35.9492H110.338V0.399902H134.004V35.9492ZM148.426 0.399902C154.978 0.399902 160.31 5.7323 160.31 12.2835V16.9049H136.594V0.399902H148.426ZM136.594 24.1164V19.495H160.31V35.9492H148.426C141.926 35.9492 136.594 30.6676 136.594 24.1164Z" fill="#979797"/>
<path d="M55.1299 12.2835C55.1299 5.78308 60.4115 0.399902 66.9627 0.399902H78.7956V35.9492H55.1299V12.2835ZM93.2184 0.399902C99.7697 0.399902 105.102 5.78308 105.102 12.2835V35.9492H81.3856V0.399902H93.2184Z" fill="#979797"/>
<path d="M49.9624 16.9049H26.2459V0.399902H49.9624V16.9049ZM26.2459 19.495H49.9624V35.9492H38.0788C31.5783 35.9492 26.2459 30.6676 26.2459 24.1164V19.495ZM23.6559 35.9492H-0.00976562V0.399902H23.6559V35.9492Z" fill="#979797"/>
</svg>
