<svg width="432" height="126" viewBox="0 0 432 126" fill="none" xmlns="http://www.w3.org/2000/svg">
<path d="M317.894 55.4937C355.794 55.4937 393.594 55.4937 431.494 55.4937V87.8937H426.494C413.594 87.8937 403.094 77.3937 403.094 64.5937V60.4937H397.994V125.394H351.394V60.4937H346.294V64.5937C346.294 77.3937 335.794 87.8937 322.894 87.8937H317.894V55.4937Z" fill="#D6D6D6"/>
<path d="M217.285 125.394V55.4937H263.885V120.394H268.985V116.294C268.985 103.494 279.485 92.9937 292.285 92.9937H315.685V125.494C282.885 125.494 250.085 125.394 217.285 125.394Z" fill="#D6D6D6"/>
<path d="M131.875 55.4937C149.075 55.4937 166.375 55.4937 183.575 55.4937C196.475 55.4937 206.975 65.9937 206.975 78.7937V125.394H160.275V92.9937H155.175V125.394H108.575V78.7937C108.575 65.9937 118.975 55.4937 131.875 55.4937ZM155.175 87.8937H160.275V60.4937H155.175V87.8937Z" fill="#D6D6D6"/>
<path d="M51.7 92.9937H98.4V125.394H75C62.2 125.394 51.7 114.994 51.7 102.094V92.9937ZM0 125.394V55.4937H46.6V87.8937H51.7V55.4937H98.4V87.8937H51.7V92.9937H46.6V125.394H0Z" fill="#D6D6D6"/>
<path d="M255.404 33.294V0.193848C267.242 0.193848 279.081 0.193848 290.919 0.193848C297.028 0.193848 302 5.16597 302 11.2272V33.294H279.886V2.56153H277.471V33.294H255.404Z" fill="#979797"/>
<path d="M215.32 0.193848C223.465 0.193848 231.657 0.193848 239.802 0.193848C245.911 0.193848 250.883 5.16597 250.883 11.2272V22.2606C250.883 28.3219 245.911 33.294 239.802 33.294C231.657 33.294 223.465 33.294 215.32 33.294C209.212 33.294 204.287 28.3219 204.287 22.2606V11.2272C204.287 5.16597 209.212 0.193848 215.32 0.193848ZM226.354 30.9263H228.769V2.56153H226.354V30.9263Z" fill="#979797"/>
<path d="M164.78 0.193848C176.619 0.193848 188.457 0.193848 200.343 0.193848V15.5364H189.262C183.201 15.5364 178.229 10.5643 178.229 4.50302V2.56153H175.814C175.814 7.34424 176.145 10.6116 179.839 14.2105C180.36 14.684 180.881 15.1576 181.449 15.5364H153.747V11.2272C153.747 5.16597 158.719 0.193848 164.78 0.193848ZM175.814 30.9263H178.229C178.229 26.1436 177.945 22.8762 174.204 19.2773C173.73 18.8038 173.162 18.3303 172.594 17.9514H200.343V22.2606C200.343 28.3692 195.371 33.294 189.262 33.294C177.424 33.294 165.585 33.294 153.747 33.294V17.9514H164.78C170.842 17.9514 175.814 22.9236 175.814 28.9848V30.9263Z" fill="#979797"/>
<path d="M102.892 0.193848C114.731 0.193848 126.569 0.193848 138.407 0.193848C144.516 0.193848 149.488 5.11862 149.488 11.2272V15.5364H129.789V17.9514H149.488V33.294H138.407C132.346 33.294 127.374 28.3692 127.374 22.2606C127.374 15.7258 127.374 9.14367 127.374 2.56153H124.959V33.294H102.892V0.193848Z" fill="#979797"/>
<path d="M62.4475 0.193848C70.5923 0.193848 78.7845 0.193848 86.9293 0.193848C93.0379 0.193848 98.0101 5.16597 98.0101 11.2272V33.294H75.8959V17.9514H73.4809V33.294H51.4141V11.2272C51.4141 5.16597 56.3389 0.193848 62.4475 0.193848ZM73.4809 15.5364H75.8959V2.56153H73.4809V15.5364Z" fill="#979797"/>
<path d="M24.4818 17.9514H46.5959V33.294H35.5152C29.4539 33.294 24.4818 28.3692 24.4818 22.2606V17.9514ZM0 33.294V0.193848H22.0668V15.5364H24.4818V0.193848H46.5959V15.5364H24.4818V17.9514H22.0668V33.294H0Z" fill="#979797"/>
</svg>
